# Blender v2.78 (sub 0) OBJ File: 'Rock1_High.blend'
# www.blender.org
mtllib Rock1_Cage.mtl
o Cage_Rock1_Low.001
v -0.537391 0.624947 0.744832
v -0.499053 0.341700 0.673932
v -0.199174 0.481683 0.800603
v -0.631084 0.393124 -0.185881
v -0.821097 0.647177 0.038899
v -0.958326 0.536044 -0.379477
v 1.044240 0.549950 0.303175
v 0.887660 0.869965 0.623390
v 0.705941 0.688019 0.706173
v 0.386706 0.587093 0.814163
v 0.159603 0.705241 0.938974
v 0.071475 0.534452 0.893123
v 0.520596 0.330323 0.593025
v 0.834122 0.331992 0.300515
v 0.075347 0.434137 0.806346
v 0.615298 -0.017066 -0.029269
v 0.191747 0.023111 -0.019641
v 0.237807 0.047847 -0.205074
v 0.532266 0.781724 0.814205
v 0.999234 0.657090 -0.188090
v 0.921822 0.840661 0.153070
v 0.659872 1.283753 0.631886
v 0.688433 0.946195 0.749497
v 0.765604 1.126989 0.423289
v -0.762803 0.840641 0.198956
v -0.745516 1.006964 0.329034
v -0.872402 1.070750 0.129776
v -1.119470 0.720859 -0.620971
v -0.683202 0.383593 -0.651620
v -0.803428 0.361275 -0.489740
v -0.176161 0.272825 -0.735965
v -0.389981 0.178189 -0.634740
v -0.804294 0.701841 -0.690013
v -0.466286 0.514372 -0.687002
v -0.751997 0.993603 -0.751932
v -0.979513 0.894288 -0.690113
v -0.411033 0.755298 -0.793012
v -0.526185 0.989451 -0.884792
v 0.407816 1.218700 0.703582
v 0.154353 1.110439 0.791218
v -0.624657 1.154289 0.256119
v -0.222023 0.887509 0.944713
v -0.559479 0.430652 0.185838
v -0.645115 0.655631 0.312783
v -0.540469 0.402026 0.400368
v -0.592215 0.763050 0.457062
v 1.094422 0.407206 0.080000
v 0.622746 1.430103 0.290303
v 0.746164 1.143146 0.101932
v -1.009603 0.733661 -0.167531
v -1.004226 0.989462 -0.013625
v 0.108633 1.168475 0.608439
v -0.263194 1.120059 0.580519
v -0.085375 1.023728 0.732772
v -0.480132 1.308014 0.048277
v -0.222626 1.274605 0.318348
v -0.172436 1.492979 -0.054396
v -0.219320 1.603010 -0.319365
v -0.503378 1.544366 -0.181780
v -0.394891 1.209836 0.379957
v 0.378267 0.192441 0.530094
v -0.015657 0.263602 0.469540
v 0.037644 0.142879 0.259233
v -0.025256 1.508963 -0.041065
v 0.177953 1.410359 -0.274160
v 0.357937 1.423169 -0.345405
v 0.038118 1.540974 -0.561532
v -0.087431 0.562142 -0.928484
v -0.158248 0.759029 -0.950402
v 0.437851 0.015932 0.171965
v 0.659797 0.103867 0.333979
v 0.354560 1.379506 -0.126075
v 0.846385 0.902256 -0.264600
v 0.629548 1.427727 -0.252440
v 0.437155 1.439051 0.231028
v -0.622076 1.052576 0.605492
v -0.047153 1.467131 0.105249
v -0.569149 0.272215 -0.463307
v 0.173372 1.478380 0.113795
v -0.343905 0.170691 0.319068
v 0.016790 0.338642 -0.849399
v 0.148563 0.527072 -0.921446
v -0.399819 0.205779 -0.236887
v -0.446897 0.318772 -0.027208
v -0.172232 -0.021344 -0.470045
v -0.023722 -0.043937 -0.262111
v -0.337011 -0.004253 -0.425038
v 0.251125 1.223668 0.432822
v -1.268584 0.889665 -0.446470
v 0.119817 1.309884 0.271420
v -0.182372 0.068521 -0.034166
v 0.692299 1.232715 -0.243504
v -0.515288 1.452904 -0.376051
v -0.828281 1.355586 -0.149724
v -1.106275 1.206494 -0.184806
v -1.264111 1.004345 -0.302895
v 0.935072 0.154844 0.082793
v 0.513087 1.366354 0.501654
v -0.867673 1.189431 -0.358008
v -0.489611 0.868885 0.850899
v 0.374575 0.292117 -0.419282
v 0.405189 0.374589 -0.760225
v 0.636318 0.462243 -0.668550
v -0.240235 0.679643 0.825864
v -0.237403 0.984998 -0.929727
v -0.076211 0.947995 -0.790877
v 0.780457 0.577839 -0.634322
v 0.933859 0.720098 -0.483310
v 0.798952 0.486219 -0.361144
v 0.698376 0.006668 0.194523
v -0.317880 1.217522 -0.799743
v 0.617079 1.110768 -0.484485
v -0.864971 1.070688 -0.496520
v 0.476248 0.502743 -0.810400
v 0.496548 0.793934 -0.640924
v 0.131591 1.313031 -0.601771
v 0.291766 0.865695 -0.672534
v 0.013629 1.254444 -0.652400
v 0.104063 0.211929 -0.475019
v -0.134424 1.469551 -0.641577
v -0.226178 1.320331 -0.749679
v 0.309681 1.308797 -0.508721
v 0.045536 0.767758 -0.798063
v 0.882018 0.273398 -0.158068
v 0.782459 0.870528 -0.483101
v -0.419372 1.325900 -0.571148
v -0.322979 0.065322 -0.151733
vn -0.7087 -0.2656 0.6536
vn -0.4656 -0.7117 0.5261
vn -0.1715 -0.5260 0.8330
vn -0.5495 -0.7862 0.2828
vn -0.7289 -0.5215 0.4436
vn -0.6869 -0.6795 0.2579
vn 0.9242 -0.0707 0.3753
vn 0.8543 0.2368 0.4627
vn 0.5214 -0.3492 0.7786
vn 0.3333 -0.4375 0.8352
vn 0.1041 -0.1113 0.9883
vn -0.0221 -0.4162 0.9090
vn 0.4111 -0.5296 0.7420
vn 0.6179 -0.4762 0.6257
vn 0.0431 -0.7148 0.6980
vn 0.2327 -0.8982 -0.3730
vn -0.0598 -0.9861 0.1550
vn 0.2449 -0.8573 -0.4528
vn 0.3069 0.0404 0.9509
vn 0.9676 0.1655 -0.1906
vn 0.8887 0.4581 -0.0193
vn 0.5290 0.6485 0.5474
vn 0.3842 0.1424 0.9122
vn 0.8873 0.4599 0.0346
vn -0.7968 -0.2412 0.5540
vn -0.8712 0.0928 0.4821
vn -0.6358 0.4315 0.6400
vn -0.6238 -0.4437 -0.6435
vn -0.3602 -0.5008 -0.7870
vn -0.5458 -0.8375 -0.0272
vn -0.1580 -0.5041 -0.8491
vn -0.3802 -0.7173 -0.5839
vn -0.2323 -0.2395 -0.9427
vn -0.2075 -0.2066 -0.9562
vn -0.4554 0.4528 -0.7665
vn -0.4476 0.3283 -0.8318
vn -0.3759 -0.3663 -0.8512
vn -0.3488 -0.0093 -0.9372
vn -0.0874 0.7217 0.6866
vn -0.0870 0.6908 0.7178
vn -0.4870 0.8075 0.3327
vn -0.2399 0.1683 0.9561
vn -0.7472 -0.6499 0.1392
vn -0.8553 -0.3123 0.4134
vn -0.9189 -0.3766 0.1175
vn -0.9081 -0.2231 0.3543
vn 0.9311 -0.3534 -0.0908
vn 0.5395 0.8264 0.1614
vn 0.8917 0.4506 -0.0418
vn -0.7423 -0.4441 0.5017
vn -0.7442 -0.1087 0.6591
vn -0.2358 0.9100 0.3409
vn -0.1195 0.8467 0.5184
vn -0.2494 0.8352 0.4901
vn -0.3179 0.7977 0.5125
vn -0.1661 0.8566 0.4885
vn -0.1946 0.8750 0.4433
vn -0.0293 0.9989 -0.0377
vn -0.3122 0.9142 0.2584
vn -0.2535 0.8875 0.3849
vn -0.0180 -0.8245 0.5656
vn -0.0690 -0.8649 0.4972
vn -0.1333 -0.9179 0.3737
vn 0.1231 0.9867 0.1064
vn 0.2568 0.9587 0.1221
vn 0.1821 0.9805 -0.0735
vn 0.3631 0.7422 -0.5633
vn -0.2997 -0.3291 -0.8955
vn 0.1101 0.0676 -0.9916
vn -0.1062 -0.9418 0.3190
vn 0.3902 -0.6575 0.6445
vn 0.0945 0.9945 -0.0460
vn 0.8348 0.5148 -0.1953
vn 0.3874 0.8676 -0.3118
vn -0.1000 0.9444 0.3134
vn -0.7262 0.5088 0.4623
vn -0.1292 0.8612 0.4916
vn -0.5785 -0.8157 -0.0038
vn 0.0440 0.9582 0.2826
vn -0.4636 -0.8636 0.1983
vn 0.0410 -0.6904 -0.7222
vn 0.2509 -0.0536 -0.9665
vn -0.7544 -0.6184 0.2202
vn -0.7432 -0.6604 0.1073
vn 0.1567 -0.8076 -0.5685
vn 0.0900 -0.9956 -0.0274
vn -0.5626 -0.8264 -0.0234
vn -0.2365 0.8932 0.3825
vn -0.9111 0.1484 -0.3845
vn -0.1038 0.7608 0.6406
vn -0.1377 -0.9453 0.2957
vn 0.9061 0.3767 -0.1926
vn -0.4565 0.7435 -0.4887
vn -0.4849 0.8657 0.1245
vn -0.7250 0.6593 0.1992
vn -0.9596 0.2099 0.1876
vn 0.7266 -0.6649 0.1728
vn -0.2523 0.9102 0.3284
vn -0.4365 0.6949 -0.5715
vn -0.3938 0.5264 0.7535
vn 0.3580 -0.8233 -0.4404
vn 0.3369 -0.7643 -0.5499
vn 0.5178 -0.7504 -0.4108
vn -0.2438 -0.2744 0.9302
vn 0.2978 0.3855 -0.8733
vn 0.4885 0.3539 -0.7976
vn 0.6301 -0.0769 -0.7727
vn 0.8895 0.1136 -0.4425
vn 0.6422 -0.5996 -0.4775
vn 0.2672 -0.9084 0.3216
vn -0.0908 0.6065 -0.7899
vn 0.5866 0.4034 -0.7022
vn -0.4503 0.7340 -0.5084
vn 0.4127 0.0170 -0.9107
vn 0.3200 0.3994 -0.8591
vn 0.3574 0.2889 -0.8882
vn 0.3217 0.3141 -0.8933
vn 0.3453 0.2582 -0.9023
vn 0.3498 -0.8062 -0.4771
vn -0.1437 0.6883 -0.7111
vn -0.0332 0.5317 -0.8463
vn 0.3986 0.4864 -0.7775
vn 0.3682 0.4410 -0.8185
vn 0.6215 -0.5279 -0.5788
vn 0.5581 0.4981 -0.6637
vn -0.4810 0.6595 -0.5776
vn -0.6144 -0.7668 0.1857
usemtl material_0
s 1
f 1//1 2//2 3//3
f 4//4 5//5 6//6
f 7//7 8//8 9//9
f 10//10 11//11 12//12
f 9//9 13//13 14//14
f 12//12 15//15 10//10
f 16//16 17//17 18//18
f 19//19 10//10 9//9
f 7//7 20//20 21//21
f 8//8 22//22 23//23
f 8//8 21//21 24//24
f 25//25 26//26 27//27
f 8//8 24//24 22//22
f 28//28 29//29 30//30
f 29//29 31//31 32//32
f 33//33 34//34 29//29
f 35//35 33//33 36//36
f 37//37 33//33 38//38
f 39//39 23//23 22//22
f 39//39 19//19 23//23
f 19//19 39//39 40//40
f 41//41 27//27 26//26
f 40//40 42//42 11//11
f 5//5 43//43 44//44
f 45//45 46//46 44//44
f 14//14 47//47 7//7
f 25//25 44//44 46//46
f 48//48 24//24 49//49
f 44//44 25//25 5//5
f 25//25 50//50 5//5
f 27//27 51//51 25//25
f 52//52 53//53 54//54
f 55//55 56//56 57//57
f 57//57 58//58 59//59
f 46//46 45//45 1//1
f 56//56 55//55 60//60
f 61//61 62//62 63//63
f 64//64 65//65 58//58
f 66//66 67//67 65//65
f 68//68 37//37 69//69
f 70//70 71//71 61//61
f 72//72 65//65 64//64
f 38//38 33//33 35//35
f 73//73 21//21 20//20
f 48//48 74//74 75//75
f 55//55 41//41 60//60
f 20//20 7//7 47//47
f 60//60 41//41 76//76
f 77//77 57//57 56//56
f 29//29 32//32 78//78
f 77//77 79//79 64//64
f 45//45 80//80 2//2
f 63//63 17//17 70//70
f 81//81 68//68 82//82
f 77//77 64//64 57//57
f 5//5 50//50 6//6
f 83//83 84//84 4//4
f 85//85 86//86 87//87
f 62//62 2//2 80//80
f 52//52 88//88 53//53
f 49//49 21//21 73//73
f 61//61 15//15 62//62
f 50//50 89//89 6//6
f 87//87 83//83 78//78
f 88//88 90//90 56//56
f 67//67 58//58 65//65
f 30//30 29//29 78//78
f 43//43 84//84 80//80
f 3//3 62//62 15//15
f 4//4 78//78 83//83
f 30//30 78//78 4//4
f 37//37 38//38 69//69
f 30//30 6//6 28//28
f 91//91 17//17 63//63
f 48//48 49//49 92//92
f 58//58 93//93 59//59
f 21//21 8//8 7//7
f 19//19 9//9 23//23
f 25//25 51//51 50//50
f 94//94 55//55 59//59
f 10//10 15//15 13//13
f 57//57 59//59 55//55
f 43//43 45//45 44//44
f 95//95 96//96 51//51
f 86//86 18//18 17//17
f 37//37 68//68 31//31
f 19//19 11//11 10//10
f 4//4 84//84 43//43
f 47//47 14//14 97//97
f 27//27 95//95 51//51
f 52//52 40//40 39//39
f 27//27 94//94 95//95
f 21//21 49//49 24//24
f 27//27 55//55 94//94
f 43//43 5//5 4//4
f 34//34 37//37 31//31
f 80//80 45//45 43//43
f 32//32 87//87 78//78
f 30//30 4//4 6//6
f 96//96 50//50 51//51
f 56//56 53//53 88//88
f 32//32 85//85 87//87
f 39//39 98//98 88//88
f 92//92 74//74 48//48
f 33//33 28//28 36//36
f 94//94 93//93 99//99
f 100//100 76//76 1//1
f 48//48 88//88 98//98
f 54//54 53//53 100//100
f 96//96 95//95 99//99
f 101//101 102//102 103//103
f 56//56 90//90 77//77
f 11//11 42//42 104//104
f 33//33 37//37 34//34
f 57//57 64//64 58//58
f 42//42 1//1 104//104
f 105//105 106//106 69//69
f 107//107 108//108 109//109
f 110//110 16//16 97//97
f 104//104 3//3 12//12
f 111//111 38//38 35//35
f 75//75 74//74 72//72
f 112//112 92//92 73//73
f 1//1 42//42 100//100
f 35//35 36//36 113//113
f 3//3 104//104 1//1
f 22//22 48//48 98//98
f 114//114 115//115 107//107
f 39//39 22//22 98//98
f 81//81 82//82 102//102
f 96//96 99//99 89//89
f 116//116 117//117 118//118
f 47//47 109//109 20//20
f 109//109 16//16 101//101
f 81//81 102//102 119//119
f 67//67 116//116 118//118
f 120//120 118//118 121//121
f 89//89 99//99 113//113
f 90//90 88//88 75//75
f 109//109 103//103 107//107
f 74//74 112//112 122//122
f 123//123 106//106 117//117
f 116//116 122//122 117//117
f 1//1 76//76 46//46
f 50//50 96//96 89//89
f 109//109 124//124 16//16
f 70//70 17//17 16//16
f 46//46 26//26 25//25
f 107//107 125//125 108//108
f 67//67 66//66 122//122
f 70//70 16//16 110//110
f 99//99 126//126 113//113
f 81//81 31//31 68//68
f 63//63 80//80 91//91
f 15//15 61//61 13//13
f 119//119 102//102 101//101
f 126//126 121//121 111//111
f 69//69 123//123 82//82
f 127//127 86//86 91//91
f 26//26 76//76 41//41
f 81//81 119//119 31//31
f 94//94 59//59 93//93
f 115//115 112//112 125//125
f 119//119 18//18 86//86
f 42//42 54//54 100//100
f 28//28 89//89 36//36
f 99//99 93//93 126//126
f 26//26 46//46 76//76
f 69//69 38//38 105//105
f 101//101 103//103 109//109
f 97//97 16//16 124//124
f 73//73 20//20 108//108
f 90//90 75//75 79//79
f 75//75 88//88 48//48
f 127//127 80//80 84//84
f 71//71 97//97 14//14
f 16//16 18//18 101//101
f 99//99 95//95 94//94
f 40//40 54//54 42//42
f 22//22 24//24 48//48
f 8//8 23//23 9//9
f 115//115 123//123 117//117
f 82//82 68//68 69//69
f 15//15 12//12 3//3
f 126//126 120//120 121//121
f 56//56 60//60 53//53
f 11//11 104//104 12//12
f 119//119 85//85 31//31
f 66//66 72//72 74//74
f 47//47 97//97 124//124
f 65//65 72//72 66//66
f 110//110 71//71 70//70
f 2//2 62//62 3//3
f 79//79 72//72 64//64
f 124//124 109//109 47//47
f 108//108 125//125 73//73
f 103//103 102//102 114//114
f 71//71 14//14 13//13
f 18//18 119//119 101//101
f 87//87 127//127 83//83
f 40//40 52//52 54//54
f 60//60 76//76 53//53
f 109//109 108//108 20//20
f 79//79 77//77 90//90
f 118//118 117//117 106//106
f 112//112 115//115 117//117
f 117//117 122//122 112//112
f 112//112 74//74 92//92
f 122//122 116//116 67//67
f 120//120 67//67 118//118
f 111//111 121//121 118//118
f 111//111 118//118 106//106
f 105//105 111//111 106//106
f 115//115 125//125 107//107
f 106//106 123//123 69//69
f 27//27 41//41 55//55
f 89//89 28//28 6//6
f 111//111 105//105 38//38
f 113//113 111//111 35//35
f 120//120 58//58 67//67
f 126//126 93//93 120//120
f 93//93 58//58 120//120
f 126//126 111//111 113//113
f 49//49 73//73 92//92
f 13//13 61//61 71//71
f 112//112 73//73 125//125
f 127//127 91//91 80//80
f 10//10 13//13 9//9
f 61//61 63//63 70//70
f 127//127 84//84 83//83
f 110//110 97//97 71//71
f 1//1 45//45 2//2
f 114//114 123//123 115//115
f 31//31 29//29 34//34
f 32//32 31//31 85//85
f 62//62 80//80 63//63
f 40//40 11//11 19//19
f 7//7 9//9 14//14
f 91//91 86//86 17//17
f 52//52 39//39 88//88
f 114//114 82//82 123//123
f 53//53 76//76 100//100
f 86//86 85//85 119//119
f 89//89 113//113 36//36
f 66//66 74//74 122//122
f 114//114 107//107 103//103
f 72//72 79//79 75//75
f 114//114 102//102 82//82
f 86//86 127//127 87//87
f 28//28 33//33 29//29
